<?xml version="1.0" encoding="UTF-8" standalone="no"?>
<svg
   xmlns:dc="http://purl.org/dc/elements/1.1/"
   xmlns:cc="http://creativecommons.org/ns#"
   xmlns:rdf="http://www.w3.org/1999/02/22-rdf-syntax-ns#"
   xmlns:svg="http://www.w3.org/2000/svg"
   xmlns="http://www.w3.org/2000/svg"
   xmlns:xlink="http://www.w3.org/1999/xlink"
   xmlns:sodipodi="http://sodipodi.sourceforge.net/DTD/sodipodi-0.dtd"
   xmlns:inkscape="http://www.inkscape.org/namespaces/inkscape"
   id="svg4057"
   height="192"
   width="108"
   version="1.1"
   sodipodi:docname="warning@assistant.svg"
   inkscape:version="0.92.5 (2060ec1f9f, 2020-04-08)">
  <sodipodi:namedview
     pagecolor="#ffffff"
     bordercolor="#666666"
     borderopacity="1"
     objecttolerance="10"
     gridtolerance="10"
     guidetolerance="10"
     inkscape:pageopacity="0"
     inkscape:pageshadow="2"
     inkscape:window-width="1809"
     inkscape:window-height="936"
     id="namedview33"
     showgrid="false"
     inkscape:zoom="2.6074563"
     inkscape:cx="-27.782767"
     inkscape:cy="94.509767"
     inkscape:window-x="0"
     inkscape:window-y="30"
     inkscape:window-maximized="0"
     inkscape:current-layer="svg4057" />
  <defs
     id="defs4059">
    <linearGradient
       id="linearGradient4171">
      <stop
         id="stop4173"
         offset="0"
         style="stop-color:#ffe16b;stop-opacity:1" />
      <stop
         id="stop4175"
         offset="1"
         style="stop-color:#f9c440;stop-opacity:1" />
    </linearGradient>
    <linearGradient
       gradientTransform="matrix(3.5958587,0,-0.01565264,3.7416737,-25.369208,-32.658515)"
       gradientUnits="userSpaceOnUse"
       xlink:href="#linearGradient3117"
       id="linearGradient3101"
       y2="56.784363"
       x2="14.653106"
       y1="20.578842"
       x1="14.495504" />
    <linearGradient
       id="linearGradient3117">
      <stop
         offset="0"
         style="stop-color:#ffffff;stop-opacity:1"
         id="stop3119" />
      <stop
         offset="0.56911701"
         style="stop-color:#ffffff;stop-opacity:0.23529412"
         id="stop3121" />
      <stop
         offset="0.93297637"
         style="stop-color:#ffffff;stop-opacity:0.15686275"
         id="stop3123" />
      <stop
         offset="1"
         style="stop-color:#ffffff;stop-opacity:0.39215687"
         id="stop3125" />
    </linearGradient>
    <radialGradient
       gradientTransform="matrix(0.08210467,0,0,0.05261167,40.836829,157.93308)"
       gradientUnits="userSpaceOnUse"
       xlink:href="#linearGradient5060"
       id="radialGradient3109"
       fy="486.64789"
       fx="605.71429"
       r="117.14286"
       cy="486.64789"
       cx="605.71429" />
    <linearGradient
       id="linearGradient5060">
      <stop
         offset="0"
         style="stop-color:#000000;stop-opacity:1"
         id="stop5062" />
      <stop
         offset="1"
         style="stop-color:#000000;stop-opacity:0"
         id="stop5064" />
    </linearGradient>
    <radialGradient
       gradientTransform="matrix(-0.08210467,0,0,0.05261167,6.9172464,157.93308)"
       gradientUnits="userSpaceOnUse"
       xlink:href="#linearGradient5060"
       id="radialGradient3112"
       fy="486.64789"
       fx="605.71429"
       r="117.14286"
       cy="486.64789"
       cx="605.71429" />
    <linearGradient
       id="linearGradient5048">
      <stop
         offset="0"
         style="stop-color:#000000;stop-opacity:0"
         id="stop5050" />
      <stop
         offset="0.5"
         style="stop-color:#000000;stop-opacity:1"
         id="stop5056" />
      <stop
         offset="1"
         style="stop-color:#000000;stop-opacity:0"
         id="stop5052" />
    </linearGradient>
    <linearGradient
       gradientTransform="matrix(0.27519961,0,0,0.05261167,-75.58796,157.93308)"
       gradientUnits="userSpaceOnUse"
       xlink:href="#linearGradient5048"
       id="linearGradient4055"
       y2="609.50507"
       x2="302.85715"
       y1="366.64789"
       x1="302.85715" />
    <linearGradient
       gradientUnits="userSpaceOnUse"
       y2="59.191353"
       x2="34.678368"
       y1="3.6804657"
       x1="34.678368"
       id="linearGradient4177"
       xlink:href="#linearGradient4171"
       gradientTransform="matrix(2.5554247,0,0,2.5554247,-57.896552,31.563678)" />
  </defs>
  <metadata
     id="metadata4062">
    <rdf:RDF>
      <cc:Work
         rdf:about="">
        <dc:format>image/svg+xml</dc:format>
        <dc:type
           rdf:resource="http://purl.org/dc/dcmitype/StillImage" />
        <dc:title />
      </cc:Work>
    </rdf:RDF>
  </metadata>
  <rect
     width="132.88208"
     height="12.777122"
     x="-42.564003"
     y="177.22287"
     id="rect2879"
     style="display:inline;overflow:visible;visibility:visible;opacity:0.3;fill:url(#linearGradient4055);fill-opacity:1;fill-rule:nonzero;stroke:none;stroke-width:2.55542469;marker:none" />
  <path
     d="m -42.564003,177.22346 c 0,0 0,12.77636 0,12.77636 -4.22818,0.0256 -10.221695,-2.86258 -10.221695,-6.38907 0,-3.52649 4.718332,-6.38729 10.221695,-6.38729 z"
     id="path2881"
     style="display:inline;overflow:visible;visibility:visible;opacity:0.3;fill:url(#radialGradient3112);fill-opacity:1;fill-rule:nonzero;stroke:none;stroke-width:2.55542469;marker:none"
     inkscape:connector-curvature="0" />
  <path
     d="m 90.318079,177.22346 c 0,0 0,12.77636 0,12.77636 4.22818,0.0256 10.221701,-2.86258 10.221701,-6.38907 0,-3.52649 -4.718339,-6.38729 -10.221701,-6.38729 z"
     id="path2883"
     style="display:inline;overflow:visible;visibility:visible;opacity:0.3;fill:url(#radialGradient3109);fill-opacity:1;fill-rule:nonzero;stroke:none;stroke-width:2.55542469;marker:none"
     inkscape:connector-curvature="0" />
  <path
     d="M 98.189094,168.4682 32.751492,45.807812 c -1.880869,-3.407224 -5.284235,-5.30013 -9.074595,-5.30013 -3.790334,0 -7.211178,2.271467 -9.120617,5.678717 L -50.394029,168.84678 c -1.528833,3.02866 -1.546309,7.19307 0.336166,10.22171 1.882454,3.02865 4.908384,4.54298 8.698742,4.54298 h 130.38786 c 3.79036,0 7.209595,-1.89291 8.738454,-4.92158 1.907854,-3.02864 1.923749,-6.81445 0.421901,-10.22169 z"
     id="path11155"
     style="fill:url(#linearGradient4177);fill-opacity:1;fill-rule:nonzero;stroke:none;stroke-width:2.55542469"
     inkscape:connector-curvature="0" />
  <path
     d="M 98.189094,168.4682 32.751492,45.807812 c -1.880869,-3.407224 -5.284235,-5.30013 -9.074595,-5.30013 -3.790334,0 -7.211178,2.271467 -9.120617,5.678717 L -50.394029,168.84678 c -1.528833,3.02866 -1.546309,7.19307 0.336166,10.22171 1.882454,3.02865 4.908384,4.54298 8.698742,4.54298 h 130.38786 c 3.79036,0 7.209595,-1.89291 8.738454,-4.92158 1.907854,-3.02864 1.923749,-6.81445 0.421901,-10.22169 z"
     id="path11155-59"
     style="color:#000000;display:inline;overflow:visible;visibility:visible;opacity:0.5;fill:none;stroke:#ad5f00;stroke-width:2.55542421;stroke-linecap:butt;stroke-linejoin:miter;stroke-miterlimit:4;stroke-dasharray:none;stroke-dashoffset:0;stroke-opacity:1;marker:none;enable-background:accumulate"
     inkscape:connector-curvature="0" />
  <path
     style="opacity:0.3;fill:#ffffff;fill-opacity:1;stroke:none;stroke-width:2.55542469;stroke-linejoin:round;stroke-miterlimit:4;stroke-dasharray:none;stroke-opacity:0.49803922"
     d="m 23.877038,80.116739 c -5.645285,0 -10.221698,4.576409 -10.221698,10.221699 0,10.221702 3.407234,23.850622 6.814464,51.108492 h 6.814468 c 3.40723,-27.25787 6.814465,-40.88679 6.814465,-51.108492 0,-5.64529 -4.576413,-10.221699 -10.221699,-10.221699 z m 0,71.551891 c -5.645285,0 -10.221698,4.57641 -10.221698,10.2217 0,5.64529 4.576413,10.2217 10.221698,10.2217 5.645286,0 10.221699,-4.57641 10.221699,-10.2217 0,-5.64529 -4.576413,-10.2217 -10.221699,-10.2217 z"
     id="path4199"
     inkscape:connector-curvature="0" />
  <path
     id="path4159-3"
     d="m 23.877038,77.561315 c -5.645285,0 -10.221698,4.576408 -10.221698,10.221698 0,10.221699 3.407234,23.850617 6.814464,51.108497 h 6.814468 c 3.40723,-27.25788 6.814465,-40.886798 6.814465,-51.108497 0,-5.64529 -4.576413,-10.221698 -10.221699,-10.221698 z m 0,71.551895 c -5.645285,0 -10.221698,4.5764 -10.221698,10.2217 0,5.64529 4.576413,10.22169 10.221698,10.22169 5.645286,0 10.221699,-4.5764 10.221699,-10.22169 0,-5.6453 -4.576413,-10.2217 -10.221699,-10.2217 z"
     style="opacity:1;fill:#7a0000;fill-opacity:1;stroke:none;stroke-width:2.55542469;stroke-linejoin:round;stroke-miterlimit:4;stroke-dasharray:none;stroke-opacity:0.49803922"
     inkscape:connector-curvature="0" />
  <path
     d="m 23.677395,43.053091 c -2.771984,0 -5.386068,1.684868 -6.897651,4.382169 l -64.898801,122.56055 c -1.108347,2.19566 -1.097105,5.59671 0.229589,7.73117 1.438055,2.31366 3.416019,3.33902 6.528312,3.33902 H 89.030385 c 2.942319,0 5.424968,-1.47639 6.458438,-3.52369 a 2.5479423,2.5479423 0 0 1 0.119772,-0.20955 c 1.398004,-2.21926 1.463165,-5.05941 0.254546,-7.81599 L 30.520143,47.040958 c -1.445596,-2.618722 -3.900769,-3.987867 -6.842748,-3.987867 z"
     id="path4203"
     style="color:#000000;clip-rule:nonzero;display:inline;overflow:visible;visibility:visible;opacity:0.6;isolation:auto;mix-blend-mode:normal;color-interpolation:sRGB;color-interpolation-filters:linearRGB;solid-color:#000000;solid-opacity:1;fill:none;fill-opacity:1;fill-rule:nonzero;stroke:url(#linearGradient3101);stroke-width:2.55542469;stroke-linecap:butt;stroke-linejoin:miter;stroke-miterlimit:4;stroke-dasharray:none;stroke-dashoffset:0;stroke-opacity:1;marker:none;color-rendering:auto;image-rendering:auto;shape-rendering:auto;text-rendering:auto;enable-background:accumulate"
     inkscape:connector-curvature="0" />
</svg>
