<?xml version="1.0" encoding="UTF-8" standalone="no"?>
<!-- Created with Inkscape (http://www.inkscape.org/) -->

<svg
   xmlns:dc="http://purl.org/dc/elements/1.1/"
   xmlns:cc="http://creativecommons.org/ns#"
   xmlns:rdf="http://www.w3.org/1999/02/22-rdf-syntax-ns#"
   xmlns:svg="http://www.w3.org/2000/svg"
   xmlns="http://www.w3.org/2000/svg"
   xmlns:sodipodi="http://sodipodi.sourceforge.net/DTD/sodipodi-0.dtd"
   xmlns:inkscape="http://www.inkscape.org/namespaces/inkscape"
   id="svg2"
   version="1.1"
   inkscape:version="0.92.5 (2060ec1f9f, 2020-04-08)"
   xml:space="preserve"
   width="64"
   height="64"
   viewBox="0 0 64 64"
   sodipodi:docname="logo-white.svg"
   inkscape:export-filename="/home/glunardi/tmp/Apertis.png"
   inkscape:export-xdpi="101.25"
   inkscape:export-ydpi="101.25"><metadata
     id="metadata8"><rdf:RDF><cc:Work
         rdf:about=""><dc:format>image/svg+xml</dc:format><dc:type
           rdf:resource="http://purl.org/dc/dcmitype/StillImage" /><dc:title></dc:title></cc:Work></rdf:RDF></metadata><defs
     id="defs6" /><sodipodi:namedview
     pagecolor="#ffffff"
     bordercolor="#666666"
     borderopacity="1"
     objecttolerance="10"
     gridtolerance="10"
     guidetolerance="10"
     inkscape:pageopacity="0"
     inkscape:pageshadow="2"
     inkscape:window-width="1624"
     inkscape:window-height="1017"
     id="namedview4"
     showgrid="false"
     showguides="true"
     inkscape:guide-bbox="true"
     inkscape:zoom="6"
     inkscape:cx="53.235272"
     inkscape:cy="21.570129"
     inkscape:window-x="296"
     inkscape:window-y="30"
     inkscape:window-maximized="0"
     inkscape:current-layer="g12" /><g
     id="g10"
     inkscape:groupmode="layer"
     inkscape:label="ink_ext_XXXXXX"
     transform="matrix(1.25,0,0,-1.25,0,63.99999)"><g
       id="g12"
       transform="scale(0.1)"><rect
         style="opacity:1;vector-effect:none;fill:#3a5a80;fill-opacity:1;stroke:#000000;stroke-width:1.32794178;stroke-linecap:butt;stroke-linejoin:miter;stroke-miterlimit:4;stroke-dasharray:none;stroke-dashoffset:0;stroke-opacity:1"
         id="rect825"
         width="507.54742"
         height="508.33243"
         x="2.6890299"
         y="-510.46045"
         transform="scale(1,-1)" /><path
         d="m 256.17886,325.94722 39.04359,-67.62393 c 30.99859,-5.33475 59.88993,-16.90319 85.32765,-33.37321 L 256.17886,440.363 131.81158,224.94849 c 25.43772,16.47001 54.32827,28.04005 85.32369,33.3748 l 39.04359,67.62393"
         style="fill:#ffffff;fill-opacity:1;fill-rule:nonzero;stroke:none;stroke-width:0.07933914"
         id="path14"
         inkscape:connector-curvature="0" /><path
         d="m 365.05278,209.16952 c -16.95001,10.46564 -35.50585,18.56299 -55.20812,23.8311 -17.12538,4.58104 -35.11075,7.03738 -53.66184,7.03738 -18.55186,0 -36.53725,-2.45634 -53.66658,-7.03738 -19.7015,-5.26971 -38.25732,-13.36546 -55.20735,-23.8311 C 115.10751,189.29269 88.71177,160.88213 71.299925,127.11221 H 139.3123 c 27.6473,33.96906 69.75973,55.71831 116.87051,55.71831 47.11081,0 89.21926,-21.74925 116.86577,-55.71831 h 68.01269 c -17.41176,33.76992 -43.80711,62.18048 -76.00849,82.05731"
         style="fill:#ffffff;fill-opacity:1;fill-rule:nonzero;stroke:none;stroke-width:0.07933914"
         id="path16"
         inkscape:connector-curvature="0" /></g></g></svg>