<?xml version="1.0" encoding="UTF-8" standalone="no"?>
<svg
   xmlns:dc="http://purl.org/dc/elements/1.1/"
   xmlns:cc="http://creativecommons.org/ns#"
   xmlns:rdf="http://www.w3.org/1999/02/22-rdf-syntax-ns#"
   xmlns:svg="http://www.w3.org/2000/svg"
   xmlns="http://www.w3.org/2000/svg"
   xmlns:sodipodi="http://sodipodi.sourceforge.net/DTD/sodipodi-0.dtd"
   xmlns:inkscape="http://www.inkscape.org/namespaces/inkscape"
   width="64"
   height="64"
   viewBox="0 0 64 64"
   version="1.1"
   preserveAspectRatio="xMidYMid"
   id="svg16"
   sodipodi:docname="centos.svg"
   inkscape:version="0.92.5 (2060ec1f9f, 2020-04-08)">
  <metadata
     id="metadata22">
    <rdf:RDF>
      <cc:Work
         rdf:about="">
        <dc:format>image/svg+xml</dc:format>
        <dc:type
           rdf:resource="http://purl.org/dc/dcmitype/StillImage" />
        <dc:title></dc:title>
      </cc:Work>
    </rdf:RDF>
  </metadata>
  <defs
     id="defs20" />
  <sodipodi:namedview
     pagecolor="#ffffff"
     bordercolor="#666666"
     borderopacity="1"
     objecttolerance="10"
     gridtolerance="10"
     guidetolerance="10"
     inkscape:pageopacity="0"
     inkscape:pageshadow="2"
     inkscape:window-width="1748"
     inkscape:window-height="954"
     id="namedview18"
     showgrid="false"
     inkscape:zoom="4"
     inkscape:cx="9"
     inkscape:cy="68"
     inkscape:window-x="0"
     inkscape:window-y="30"
     inkscape:window-maximized="0"
     inkscape:current-layer="svg16" />
  <g
     id="g14"
     transform="matrix(0.25122243,0,0,0.25122243,0.04095579,0.08332872)">
    <path
       d="m 107.86045,118.64117 9.2282,9.17674 -9.2282,9.17497 H 42.901098 v 30.5714 L 3.2860264,127.81791 42.901098,88.738682 v 29.902488 z m 28.554,-78.06797 h 78.92851 v 78.93028 h -78.92851 z"
       id="path2"
       inkscape:connector-curvature="0"
       style="fill:#932279" />
    <path
       d="m 137.275,107.86045 -9.17497,9.2282 -9.17497,-9.2282 V 42.901098 H 88.351882 L 128.10003,3.2860264 167.17748,42.901098 H 137.275 Z m -0.86055,28.554 h 78.92851 v 78.93029 h -78.92851 z"
       id="path4"
       inkscape:connector-curvature="0"
       style="fill:#efa724" />
    <path
       d="m 148.05749,137.275 -9.22997,-9.17497 9.22997,-9.17497 h 64.95758 V 88.351882 l 39.61684,39.748148 -39.61684,39.07745 V 137.275 Z M 40.5732,136.41445 h 78.92851 v 78.93029 H 40.5732 Z"
       id="path6"
       inkscape:connector-curvature="0"
       style="fill:#262577" />
    <path
       d="m 118.64117,148.05749 9.17497,-9.22997 9.17674,9.22997 v 64.95935 h 30.5714 L 127.81614,252.63191 88.740456,213.01684 H 118.64117 Z M 40.5732,40.5732 h 78.92851 v 78.93028 H 40.5732 Z"
       id="path8"
       inkscape:connector-curvature="0"
       style="fill:#9ccd2a" />
    <path
       d="M 37.753818,37.753818 H 122.32109 V 122.32109 H 37.753818 Z m 5.63699,78.930282 H 116.68233 V 43.392582 H 43.390808 Z M 133.59685,37.753818 h 84.56727 v 84.567272 h -84.56727 z m 5.63699,78.930282 h 73.29152 V 43.392582 h -73.29152 z m -5.63699,16.91275 h 84.56727 v 84.56904 h -84.56727 z m 5.63699,78.92851 h 73.29152 V 139.23384 H 139.23384 Z M 37.753818,133.59685 h 84.567272 v 84.56904 H 37.753818 Z m 5.63699,78.92851 H 116.68233 V 139.23384 H 43.390808 Z"
       id="path10"
       inkscape:connector-curvature="0"
       style="fill:#ffffff" />
    <path
       d="M 60.188223,187.75773 0.3885744,127.95808 60.186448,68.160208 119.9861,127.95808 Z M 8.362334,127.95808 60.188223,179.78397 112.01234,127.95808 60.186448,76.133967 Z M 127.95808,119.9861 68.160208,60.188223 127.95808,0.3885744 187.75596,60.188223 Z M 76.133967,60.188223 127.95808,112.01234 179.78397,60.188223 127.95808,8.362334 Z M 195.72972,187.75773 135.93184,127.95808 195.72972,68.160208 255.52759,127.95808 Z m -51.82589,-59.79965 51.82589,51.82589 51.82411,-51.82589 -51.82411,-51.824113 z m -15.94575,127.56951 -59.797872,-59.79787 59.797872,-59.79788 59.79788,59.79788 z m -51.824113,-59.79787 51.824113,51.82411 51.82589,-51.82411 -51.82589,-51.82412 z"
       id="path12"
       inkscape:connector-curvature="0"
       style="fill:#ffffff" />
  </g>
</svg>
