<?xml version="1.0" encoding="UTF-8" standalone="no"?>
<svg
   xmlns:dc="http://purl.org/dc/elements/1.1/"
   xmlns:cc="http://creativecommons.org/ns#"
   xmlns:rdf="http://www.w3.org/1999/02/22-rdf-syntax-ns#"
   xmlns:svg="http://www.w3.org/2000/svg"
   xmlns="http://www.w3.org/2000/svg"
   xmlns:sodipodi="http://sodipodi.sourceforge.net/DTD/sodipodi-0.dtd"
   xmlns:inkscape="http://www.inkscape.org/namespaces/inkscape"
   height="64"
   viewBox="0 0 63.998822 64.00133"
   width="64"
   version="1.1"
   id="svg40"
   sodipodi:docname="Debian-OpenLogo.svg"
   inkscape:version="0.92.5 (2060ec1f9f, 2020-04-08)">
  <metadata
     id="metadata46">
    <rdf:RDF>
      <cc:Work
         rdf:about="">
        <dc:format>image/svg+xml</dc:format>
        <dc:type
           rdf:resource="http://purl.org/dc/dcmitype/StillImage" />
        <dc:title></dc:title>
      </cc:Work>
    </rdf:RDF>
  </metadata>
  <defs
     id="defs44" />
  <sodipodi:namedview
     pagecolor="#ffffff"
     bordercolor="#666666"
     borderopacity="1"
     objecttolerance="10"
     gridtolerance="10"
     guidetolerance="10"
     inkscape:pageopacity="0"
     inkscape:pageshadow="2"
     inkscape:window-width="1913"
     inkscape:window-height="904"
     id="namedview42"
     showgrid="false"
     inkscape:zoom="5"
     inkscape:cx="30.380001"
     inkscape:cy="40.493817"
     inkscape:window-x="0"
     inkscape:window-y="30"
     inkscape:window-maximized="0"
     inkscape:current-layer="svg40" />
  <path
     d="m 36.592374,33.498782 c -1.056606,0.01414 0.198733,0.543155 1.578545,0.756033 0.382613,-0.298453 0.726328,-0.59832 1.034682,-0.891114 -0.857874,0.210048 -1.732014,0.214999 -2.613227,0.135081"
     id="path2"
     inkscape:connector-curvature="0"
     style="fill:#d70751;stroke-width:0.70723307" />
  <path
     d="m 42.262262,32.085023 c 0.631559,-0.869189 1.089846,-1.81971 1.251803,-2.802764 -0.142154,0.70016 -0.520524,1.304845 -0.879798,1.944183 -1.975302,1.244023 -0.18671,-0.738351 -0.0014,-1.492969 -2.123114,2.675463 -0.292794,1.604005 -0.37059,2.35155"
     id="path4"
     inkscape:connector-curvature="0"
     style="fill:#d70751;stroke-width:0.70723307" />
  <path
     d="m 44.357794,26.6365 c 0.128716,-1.903164 -0.374127,-1.300601 -0.543155,-0.575688 0.19661,0.103256 0.352909,1.342328 0.543155,0.575688"
     id="path6"
     inkscape:connector-curvature="0"
     style="fill:#d70751;stroke-width:0.70723307" />
  <path
     d="m 32.583777,0.62517355 c 0.564372,0.1004271 1.21927,0.17822279 1.125208,0.31330429 0.619536,-0.136496 0.758861,-0.25955457 -1.125208,-0.31330429"
     id="path8"
     inkscape:connector-curvature="0"
     style="fill:#d70751;stroke-width:0.70723307" />
  <path
     d="m 33.709692,0.93847784 -0.396757,0.082746 0.369882,-0.033947 0.02688,-0.048799"
     id="path10"
     inkscape:connector-curvature="0"
     style="fill:#d70751;stroke-width:0.70723307" />
  <path
     d="m 51.297872,27.357877 c 0.06365,1.708676 -0.498599,2.538967 -1.0071,4.007183 l -0.914452,0.454751 c -0.747546,1.452657 0.07426,0.922232 -0.461116,2.077144 -1.168349,1.037511 -3.540409,3.245492 -4.299977,3.447761 -0.555178,-0.01202 0.37554,-0.654898 0.497184,-0.905966 -1.562277,1.072166 -1.253924,1.609663 -3.643664,2.262439 l -0.06931,-0.156299 c -5.891251,2.772354 -14.075352,-2.720725 -13.967853,-10.214567 -0.06224,0.475261 -0.17893,0.356445 -0.309061,0.547398 -0.30411,-3.855127 1.780813,-7.727228 5.297176,-9.310723 3.439275,-1.701602 7.47121,-1.004271 9.933089,1.29353 -1.35223,-1.772327 -4.046081,-3.651445 -7.236409,-3.477465 -3.126678,0.05092 -6.052501,2.037538 -7.028483,4.195306 -1.601175,1.007807 -1.787885,3.886953 -2.485217,4.414549 -0.939912,6.902595 1.765961,9.883582 6.343881,13.392165 0.718549,0.485162 0.202269,0.559422 0.298453,0.928597 -1.520552,-0.711476 -2.912386,-1.78647 -4.058104,-3.102631 0.608221,0.888992 1.263826,1.753231 2.111798,2.432174 -1.434976,-0.484454 -3.35087,-3.474636 -3.908877,-3.59628 2.471779,4.425865 10.027151,7.761883 13.985534,6.106251 -1.831734,0.06789 -4.157823,0.03748 -6.214457,-0.722793 -0.866361,-0.444849 -2.03966,-1.364959 -1.829612,-1.536817 5.400432,2.016322 10.977672,1.526209 15.649654,-2.21859 1.189566,-0.926476 2.488046,-2.501484 2.863587,-2.522701 -0.56508,0.850094 0.09689,0.408781 -0.337351,1.159155 1.182494,-1.910236 -0.515572,-0.777956 1.223514,-3.298535 l 0.642167,0.884042 c -0.240459,-1.587031 1.969645,-3.51212 1.744744,-6.019969 0.507087,-0.76664 0.56508,0.826049 0.02758,2.589888 0.746131,-1.956914 0.197319,-2.271633 0.388271,-3.886953 0.205805,0.543155 0.479504,1.11955 0.618829,1.693116 -0.486576,-1.891849 0.497185,-3.18467 0.741888,-4.284417 -0.241874,-0.106085 -0.750374,0.835949 -0.867775,-1.397493 0.01768,-0.970324 0.27087,-0.5085 0.367761,-0.747545 -0.189538,-0.109621 -0.689552,-0.853631 -0.992955,-2.28012 0.218535,-0.335936 0.588418,0.86919 0.888285,0.917989 -0.193075,-1.133695 -0.524767,-1.998641 -0.538912,-2.869245 -0.876969,-1.831734 -0.310475,0.244703 -1.020537,-0.786443 -0.933548,-2.909557 0.773713,-0.675408 0.889699,-1.996519 1.413052,2.04744 2.21859,5.222916 2.589887,6.537663 -0.282893,-1.603298 -0.739058,-3.157089 -1.297065,-4.659959 0.430705,0.181759 -0.692381,-3.297828 0.559421,-0.993663 C 55.136026,10.801551 50.75896,6.2116077 46.731268,4.0587902 47.222795,4.5092977 47.844453,5.0750841 47.622382,5.1641955 45.618083,3.9725077 45.970285,3.8784457 45.683149,3.3748958 44.052976,2.7108039 43.944062,3.4293527 42.865532,3.3763102 39.789068,1.7440163 39.196407,1.9172884 36.365353,0.89604384 L 36.494069,1.4986064 C 34.45653,0.81966264 34.119887,1.7546248 31.918271,1.5000208 31.784604,1.3960576 32.624089,1.1209439 33.315763,1.021224 31.345412,1.2814858 31.437352,0.63224588 29.509435,1.0926546 29.983988,0.75954784 30.487538,0.53818388 30.993917,0.25529064 29.387791,0.35288881 27.157885,1.1902528 27.846023,0.42785552 25.225724,1.597619 20.571423,3.239107 17.959611,5.6882552 l -0.08204,-0.5488129 c -1.196638,1.4363905 -5.218674,4.290076 -5.539051,6.1522207 l -0.320376,0.07426 c -0.621659,1.054485 -1.025489,2.249002 -1.519137,3.33319 -0.8140258,1.388299 -1.19381,0.534668 -1.0778237,0.752496 -1.601883,3.247614 -2.3989347,5.97612 -3.085658,8.21522 0.4894052,0.731986 0.012023,4.407476 0.1966108,7.348858 -0.8034158,14.529397 10.1968899,28.635161 22.2212669,31.891262 1.762425,0.631559 4.382723,0.608927 6.611922,0.671164 -2.629493,-0.752496 -2.968965,-0.398172 -5.531977,-1.291408 -1.848,-0.871311 -2.252538,-1.864973 -3.562333,-3.001497 l 0.518401,0.915867 C 24.22216,59.29228 25.296447,59.076574 23.207281,58.415311 l 0.553763,-0.722085 c -0.832413,-0.06365 -2.204445,-1.401736 -2.579279,-2.145038 l -0.910916,0.03607 c -1.093382,-1.347986 -1.67685,-2.321846 -1.633708,-3.076464 l -0.294209,0.524767 c -0.333107,-0.572152 -4.024864,-5.062375 -2.109677,-4.017085 -0.355738,-0.323912 -0.828877,-0.528303 -1.341621,-1.461143 l 0.389685,-0.44485 c -0.92011,-1.18603 -1.695945,-2.705874 -1.636537,-3.212253 0.491527,0.663385 0.832413,0.787858 1.170471,0.901723 -2.327506,-5.773851 -2.458344,-0.317548 -4.220062,-5.877107 l 0.372005,-0.0297 c -0.285015,-0.432124 -0.459702,-0.89819 -0.688845,-1.357184 l 0.162664,-1.616028 c -1.6747286,-1.93499 -0.4681892,-8.235729 -0.225608,-11.690562 0.1662,-1.404565 1.3982,-2.900363 2.33387,-5.246255 l -0.57003,-0.0976 c 1.090554,-1.901042 6.225067,-7.63741 8.604199,-7.343201 1.152083,-1.446999 -0.229143,-0.0057 -0.454751,-0.369176 2.531187,-2.6188845 3.326825,-1.8501221 5.034793,-2.3218466 1.840927,-1.0926751 -1.580666,0.4271688 -0.707941,-0.4165603 3.184671,-0.8126108 2.256074,-1.8487073 6.409654,-2.2610242 0.438484,0.248946 -1.016294,0.3847348 -1.381226,0.7079403 2.652124,-1.2984799 8.394149,-1.0021493 12.125511,0.7199633 4.326145,2.0233939 9.189787,8.0016365 9.382154,13.6262605 l 0.218535,0.0587 c -0.110328,2.236271 0.342301,4.822622 -0.443435,7.19751 l 0.531132,-1.125208"
     id="path12"
     inkscape:connector-curvature="0"
     style="fill:#d70751;stroke-width:0.70723307" />
  <path
     d="m 25.056695,34.94861 -0.149226,0.740473 c 0.69521,0.944156 1.246852,1.966815 2.133015,2.702338 -0.637924,-1.244023 -1.111063,-1.758182 -1.983789,-3.442811"
     id="path14"
     inkscape:connector-curvature="0"
     style="fill:#d70751;stroke-width:0.70723307" />
  <path
     d="m 26.698183,34.884959 c -0.367761,-0.407366 -0.584174,-0.896771 -0.828877,-1.383348 0.233387,0.85646 0.711477,1.592689 1.154912,2.342356 l -0.326035,-0.959008"
     id="path16"
     inkscape:connector-curvature="0"
     style="fill:#d70751;stroke-width:0.70723307" />
  <path
     d="m 55.754148,28.569368 -0.154884,0.390392 c -0.284308,2.021273 -0.900308,4.021328 -1.842342,5.8764 1.041047,-1.956914 1.712211,-4.097708 1.997226,-6.266792"
     id="path18"
     inkscape:connector-curvature="0"
     style="fill:#d70751;stroke-width:0.70723307" />
  <path
     d="m 32.793825,0.11808742 c 0.713599,-0.26096901 1.755353,-0.14356831 2.514921,-0.31542595 -0.988712,0.0827463 -1.972473,0.13225258 -2.943504,0.25601837 l 0.428583,0.0594076"
     id="path20"
     inkscape:connector-curvature="0"
     style="fill:#d70751;stroke-width:0.70723307" />
  <path
     d="m 7.7075585,13.457919 c 0.1647853,1.52338 -1.1457177,2.115334 0.2899655,1.109649 0.7708841,-1.73555 -0.2998668,-0.478797 -0.2899655,-1.109649"
     id="path22"
     inkscape:connector-curvature="0"
     style="fill:#d70751;stroke-width:0.70723307" />
  <path
     d="m 6.0186858,20.511862 c 0.3316924,-1.016294 0.3911,-1.625929 0.5176946,-2.215054 -0.9144523,1.169763 -0.4215109,1.419417 -0.5176946,2.215054"
     id="path24"
     inkscape:connector-curvature="0"
     style="fill:#d70751;stroke-width:0.70723307" />
</svg>
