<?xml version="1.0" encoding="UTF-8" standalone="no"?>
<svg
   xmlns:dc="http://purl.org/dc/elements/1.1/"
   xmlns:cc="http://creativecommons.org/ns#"
   xmlns:rdf="http://www.w3.org/1999/02/22-rdf-syntax-ns#"
   xmlns:svg="http://www.w3.org/2000/svg"
   xmlns="http://www.w3.org/2000/svg"
   xmlns:xlink="http://www.w3.org/1999/xlink"
   xmlns:sodipodi="http://sodipodi.sourceforge.net/DTD/sodipodi-0.dtd"
   xmlns:inkscape="http://www.inkscape.org/namespaces/inkscape"
   version="1.1"
   width="64"
   height="64"
   id="svg5157"
   inkscape:version="0.92.5 (2060ec1f9f, 2020-04-08)"
   sodipodi:docname="elementary.svg">
  <sodipodi:namedview
     pagecolor="#ffffff"
     bordercolor="#666666"
     borderopacity="1"
     objecttolerance="10"
     gridtolerance="10"
     guidetolerance="10"
     inkscape:pageopacity="0"
     inkscape:pageshadow="2"
     inkscape:window-width="1920"
     inkscape:window-height="1017"
     id="namedview48"
     showgrid="false"
     inkscape:zoom="5.015625"
     inkscape:cx="50.841121"
     inkscape:cy="24.124611"
     inkscape:window-x="0"
     inkscape:window-y="30"
     inkscape:window-maximized="1"
     inkscape:current-layer="svg5157" />
  <defs
     id="defs5159">
    <linearGradient
       id="linearGradient3820-7-2-8-6">
      <stop
         id="stop3822-2-6-5-0"
         style="stop-color:#3d3d3d;stop-opacity:1"
         offset="0" />
      <stop
         id="stop3864-8-7-4-1"
         style="stop-color:#686868;stop-opacity:0.49803922"
         offset="0.5" />
      <stop
         id="stop3824-1-2-6-7"
         style="stop-color:#686868;stop-opacity:0"
         offset="1" />
    </linearGradient>
    <linearGradient
       id="linearGradient2867-449-88-871-390-598-476-591-434-148-57-177-3-8">
      <stop
         id="stop3750-8-9"
         style="stop-color:#90dbec;stop-opacity:1"
         offset="0" />
      <stop
         id="stop3752-3-2"
         style="stop-color:#42baea;stop-opacity:1"
         offset="0.26238" />
      <stop
         id="stop3754-7-2"
         style="stop-color:#3689e6;stop-opacity:1"
         offset="0.704952" />
      <stop
         id="stop3756-9-3"
         style="stop-color:#2b63a0;stop-opacity:1"
         offset="1" />
    </linearGradient>
    <linearGradient
       id="linearGradient4806">
      <stop
         offset="0"
         style="stop-color:#ffffff;stop-opacity:1"
         id="stop4808" />
      <stop
         offset="0.42447853"
         style="stop-color:#ffffff;stop-opacity:0.23529412"
         id="stop4810" />
      <stop
         offset="0.82089913"
         style="stop-color:#ffffff;stop-opacity:0.15686275"
         id="stop4812" />
      <stop
         offset="1"
         style="stop-color:#ffffff;stop-opacity:0.39215687"
         id="stop4814" />
    </linearGradient>
    <linearGradient
       xlink:href="#linearGradient4806"
       id="linearGradient3118"
       gradientUnits="userSpaceOnUse"
       gradientTransform="matrix(2.4797972,0,0,2.4797972,-146.88086,-37.283992)"
       x1="71.204407"
       y1="15.369057"
       x2="71.204407"
       y2="40.495617" />
    <radialGradient
       xlink:href="#linearGradient3820-7-2-8-6"
       id="radialGradient3163"
       gradientUnits="userSpaceOnUse"
       gradientTransform="matrix(0.40910711,0,0,0.12781504,-8.706851,33.353899)"
       cx="99.157013"
       cy="186.17059"
       fx="99.157013"
       fy="186.17059"
       r="62.769119" />
    <radialGradient
       cx="1.1978998"
       cy="8.4497671"
       r="19.99999"
       fx="1.1978998"
       fy="8.4497671"
       id="radialGradient3328"
       xlink:href="#linearGradient2867-449-88-871-390-598-476-591-434-148-57-177-3-8"
       gradientUnits="userSpaceOnUse"
       gradientTransform="matrix(0,7.553316,-7.9905067,-2.0558964e-7,99.619354,-31.611698)" />
  </defs>
  <metadata
     id="metadata5162">
    <rdf:RDF>
      <cc:Work
         rdf:about="">
        <dc:format>image/svg+xml</dc:format>
        <dc:type
           rdf:resource="http://purl.org/dc/dcmitype/StillImage" />
        <dc:title></dc:title>
      </cc:Work>
    </rdf:RDF>
  </metadata>
  <path
     style="fill:url(#radialGradient3163);fill-opacity:1;stroke:none;stroke-width:0.59554964"
     id="path3818-0-5-0"
     d="m 57.53828,57.149293 a 25.679293,8.0228371 0 1 1 -51.3585852,0 25.679293,8.0228355 0 1 1 51.3585852,0 z"
     inkscape:connector-curvature="0" />
  <path
     inkscape:connector-curvature="0"
     style="color:#000000;display:inline;overflow:visible;visibility:visible;fill:url(#radialGradient3328);fill-opacity:1;fill-rule:nonzero;stroke:none;stroke-width:0.59554964;marker:none;enable-background:accumulate"
     id="path2555-9"
     d="m 32.101249,0.85168345 c -17.087395,0 -30.9685848,13.88118555 -30.9685848,30.96858255 0,17.087396 13.8811898,30.968591 30.9685848,30.968591 17.087389,0 30.968598,-13.881195 30.968581,-30.968591 0,-17.087397 -13.881192,-30.96858255 -30.968581,-30.96858255 z" />
  <path
     style="color:#000000;clip-rule:nonzero;display:inline;overflow:visible;visibility:visible;opacity:0.5;isolation:auto;mix-blend-mode:normal;color-interpolation:sRGB;color-interpolation-filters:linearRGB;solid-color:#000000;solid-opacity:1;fill:#000000;fill-opacity:0;fill-rule:nonzero;stroke:#00537d;stroke-width:0.59554964;stroke-linecap:round;stroke-linejoin:round;stroke-miterlimit:4;stroke-dasharray:none;stroke-dashoffset:0;stroke-opacity:1;marker:none;color-rendering:auto;image-rendering:auto;shape-rendering:auto;text-rendering:auto;enable-background:accumulate"
     id="path2555-7-1"
     d="m 32.101247,0.85168735 c -17.087395,0 -30.9685822,13.88118365 -30.9685822,30.96857965 0,17.087396 13.8811872,30.96859 30.9685822,30.968583 17.087392,0 30.968594,-13.881187 30.968583,-30.968583 0,-17.087396 -13.881191,-30.96857965 -30.968583,-30.96857965 z"
     inkscape:connector-curvature="0" />
  <path
     style="color:#000000;display:inline;overflow:visible;visibility:visible;opacity:0.5;fill:none;stroke:url(#linearGradient3118);stroke-width:0.59554964;stroke-linecap:round;stroke-linejoin:round;stroke-miterlimit:4;stroke-dasharray:none;stroke-dashoffset:0;stroke-opacity:1;marker:none;enable-background:accumulate"
     id="path3019"
     d="m 62.47428,31.82027 c 0,16.774558 -13.598486,30.373025 -30.373049,30.373025 -16.774541,0 -30.3730154,-13.598467 -30.3730154,-30.373025 0,-16.774559 13.5984744,-30.3730267 30.3730154,-30.3730267 16.774563,0 30.373049,13.5984677 30.373049,30.3730267 z"
     inkscape:connector-curvature="0" />
  <path
     sodipodi:type="inkscape:offset"
     inkscape:radius="1.0063621"
     inkscape:original="M 64.5 29 C 43.513177 29 26.5 46.013185 26.5 67 C 26.5 87.986865 43.513177 105 64.5 105 C 85.486815 105 102.5 87.986865 102.5 67 C 102.5 46.013185 85.486815 29 64.5 29 z M 64.5 32.166016 C 80.455873 32.166016 93.906365 42.894726 98.03125 57.53125 C 94.478488 64.859209 89.422118 71.457475 83.265625 76.789062 C 80.308118 79.350262 77.080499 81.632597 73.513672 83.240234 C 69.946846 84.847871 66.023156 85.761068 62.117188 85.537109 C 59.182552 85.368828 56.282859 84.551791 53.712891 83.126953 C 60.523772 79.436358 66.670716 74.515144 71.701172 68.623047 C 75.003059 64.755589 77.89157 60.360532 79.003906 55.398438 C 79.560075 52.917394 79.654558 50.319 79.134766 47.830078 C 78.614971 45.341159 77.46417 42.969767 75.722656 41.117188 C 74.021298 39.307333 71.787109 38.023901 69.392578 37.363281 C 66.998047 36.702666 64.449378 36.653054 62.005859 37.099609 C 57.118824 37.992719 52.755381 40.831212 49.255859 44.357422 C 43.087444 50.572877 39.275108 59.343467 39.974609 68.072266 C 40.324358 72.436661 41.786747 76.726273 44.292969 80.316406 C 44.852393 81.117732 45.46673 81.880248 46.125 82.603516 C 42.473971 83.881265 38.693418 84.79045 34.859375 85.302734 C 31.567584 79.983685 29.666016 73.714934 29.666016 67 C 29.666016 47.762081 45.262081 32.166016 64.5 32.166016 z M 64.720703 39.205078 C 67.169346 39.208378 69.636061 39.949774 71.589844 41.425781 C 73.350104 42.755598 74.653189 44.646097 75.392578 46.724609 C 76.131973 48.803122 76.322582 51.060321 76.070312 53.251953 C 75.565769 57.63523 73.355105 61.65647 70.683594 65.167969 C 65.953349 71.385524 59.664594 76.362133 52.671875 79.845703 C 51.956114 80.202273 51.230261 80.539465 50.5 80.865234 C 48.978439 79.53373 47.673773 77.955365 46.679688 76.195312 C 44.602513 72.517577 43.917315 68.147885 44.320312 63.943359 C 44.723315 59.738842 46.16719 55.686396 48.105469 51.933594 C 50.352816 47.582396 53.414839 43.4609 57.703125 41.095703 C 59.847269 39.913114 62.272055 39.201761 64.720703 39.205078 z M 99.021484 62.337891 C 99.225569 63.863274 99.333984 65.418766 99.333984 67 C 99.333984 86.237914 83.737921 101.83398 64.5 101.83398 C 53.695789 101.83398 44.039583 96.915802 37.650391 89.195312 C 41.593983 88.299621 45.449459 87.012562 49.146484 85.375 C 50.763226 86.606279 52.547337 87.616129 54.445312 88.34375 C 59.91111 90.439215 66.116819 90.13568 71.648438 88.220703 C 77.180052 86.305742 82.08512 82.868533 86.361328 78.871094 C 91.455404 74.109041 95.751783 68.496953 99.021484 62.337891 z "
     style="color:#000000;clip-rule:nonzero;display:inline;overflow:visible;visibility:visible;opacity:0.05;isolation:auto;mix-blend-mode:normal;color-interpolation:sRGB;color-interpolation-filters:linearRGB;solid-color:#000000;solid-opacity:1;fill:#000000;fill-opacity:1;fill-rule:nonzero;stroke:none;stroke-width:1;stroke-linecap:butt;stroke-linejoin:miter;stroke-miterlimit:4;stroke-dasharray:none;stroke-dashoffset:0;stroke-opacity:1;marker:none;color-rendering:auto;image-rendering:auto;shape-rendering:auto;text-rendering:auto;enable-background:accumulate"
     id="path3492"
     d="m 64.5,27.994141 c -21.530702,0 -39.005859,17.475165 -39.005859,39.005859 0,21.530742 17.475159,39.00586 39.005859,39.00586 21.530692,0 39.00586,-17.475118 39.00586,-39.00586 0,-21.530694 -17.475166,-39.005859 -39.00586,-39.005859 z m 0,5.177734 c 15.369973,0 28.304271,10.254373 32.429688,24.275391 -3.48279,7.058554 -8.372468,13.42749 -14.322266,18.580078 -2.907258,2.517684 -6.05894,4.740449 -9.507813,6.294922 -3.444923,1.552693 -7.214351,2.423742 -10.925781,2.210937 -2.159344,-0.123823 -4.252398,-0.726479 -6.238281,-1.570312 6.211353,-3.620144 11.858669,-8.212624 16.53125,-13.685547 3.358165,-3.933376 6.353599,-8.457019 7.519531,-13.658203 0.583653,-2.603648 0.686247,-5.344127 0.132813,-7.994141 -0.554411,-2.654667 -1.780542,-5.193623 -3.664063,-7.197266 -1.83988,-1.95721 -4.232969,-3.328346 -6.794922,-4.035156 -2.558559,-0.705868 -5.257716,-0.754375 -7.835937,-0.283203 -5.153767,0.941855 -9.679264,3.907639 -13.283203,7.539063 -6.355808,6.404276 -10.297359,15.431379 -9.570313,24.503906 0.363398,4.534711 1.881633,8.992253 4.498047,12.740234 0.286821,0.410846 0.623389,0.779715 0.935547,1.169922 -2.940948,0.945251 -5.948641,1.670198 -9.003906,2.117188 C 32.417362,79.139608 30.671875,73.28509 30.671875,67 30.671875,48.305982 45.805982,33.171875 64.5,33.171875 Z m 0.21875,7.039063 c 2.246418,0.003 4.505626,0.689443 6.263672,2.017578 1.584835,1.197289 2.784056,2.925698 3.46289,4.833984 0.680591,1.913208 0.861709,4.017777 0.625,6.074219 -0.474351,4.120988 -2.578172,7.992111 -5.1875,11.421875 -4.62668,6.081427 -10.79429,10.966343 -17.660156,14.386718 -0.476525,0.237391 -0.965786,0.457802 -1.453125,0.681641 -1.241374,-1.166762 -2.379465,-2.450181 -3.21289,-3.925781 C 45.600724,72.23813 44.935924,68.069821 45.322266,64.039062 45.709346,60.000667 47.103763,56.065934 49,52.394531 c 2.195215,-4.250263 5.156695,-8.193708 9.189453,-10.417969 2.012627,-1.110051 4.276453,-1.768676 6.529297,-1.765624 z M 98.222656,65.4375 c 0.02455,0.52365 0.105469,1.032872 0.105469,1.5625 0,18.694013 -15.134105,33.82813 -33.828125,33.82812 -9.90934,0 -18.715916,-4.351971 -24.902344,-11.134761 3.237108,-0.833588 6.415572,-1.886094 9.480469,-3.214843 1.555677,1.120447 3.21022,2.115549 5.007813,2.804687 5.733864,2.198236 12.172149,1.869012 17.892578,-0.111328 5.70961,-1.976581 10.723882,-5.503323 15.070312,-9.566406 4.414665,-4.126925 8.083232,-8.976133 11.173828,-14.167969 z"
     transform="matrix(0.59554964,0,0,0.59554964,-6.3117051,-7.4849228)" />
  <path
     inkscape:connector-curvature="0"
     style="color:#000000;clip-rule:nonzero;display:inline;overflow:visible;visibility:visible;opacity:0.15;isolation:auto;mix-blend-mode:normal;color-interpolation:sRGB;color-interpolation-filters:linearRGB;solid-color:#000000;solid-opacity:1;fill:#000000;fill-opacity:1;fill-rule:nonzero;stroke:none;stroke-width:0.59554964;stroke-linecap:butt;stroke-linejoin:miter;stroke-miterlimit:4;stroke-dasharray:none;stroke-dashoffset:0;stroke-opacity:1;marker:none;color-rendering:auto;image-rendering:auto;shape-rendering:auto;text-rendering:auto;enable-background:accumulate"
     id="path2993-9"
     d="m 32.101247,9.7860052 c -12.498695,0 -22.6308872,10.1321948 -22.6308872,22.6308848 0,12.49872 10.1321922,22.630899 22.6308872,22.630899 12.498691,0 22.630886,-10.132179 22.630886,-22.630899 0,-12.49869 -10.132195,-22.6308848 -22.630886,-22.6308848 z m 0,1.8859058 c 9.502514,0 17.512825,6.38934 19.9694,15.106117 -2.115846,4.364163 -5.126546,8.293456 -8.793043,11.468682 -1.761343,1.525321 -3.684372,2.885109 -5.808594,3.842536 -2.124223,0.957428 -4.460709,1.500663 -6.786908,1.367284 -1.747721,-0.10022 -3.474185,-0.587084 -5.004728,-1.435646 4.056218,-2.197933 7.716069,-5.12843 10.711956,-8.637466 1.966437,-2.303263 3.686919,-4.920847 4.34937,-7.87602 0.331226,-1.477585 0.387357,-3.025042 0.0778,-4.507319 -0.309564,-1.482275 -0.994905,-2.894819 -2.032063,-3.998123 -1.013243,-1.077858 -2.343395,-1.841367 -3.769458,-2.234799 -1.426062,-0.393429 -2.943642,-0.423894 -4.398879,-0.157948 -2.910472,0.531892 -5.508994,2.223407 -7.593133,4.32344 -3.673598,3.701612 -5.944654,8.924657 -5.528067,14.12309 0.208293,2.599214 1.079327,5.153295 2.571907,7.291398 0.333165,0.477229 0.699436,0.931826 1.091467,1.362568 -2.174368,0.760963 -4.42575,1.302644 -6.709112,1.607735 -1.960426,-3.167758 -3.09289,-6.901478 -3.09289,-10.900554 0,-11.457136 9.287844,-20.744979 20.74498,-20.744979 z m 0.132014,4.19143 c 1.458288,0.002 2.926487,0.443456 4.090062,1.322491 1.048322,0.791972 1.8251,1.918679 2.265443,3.156537 0.440346,1.237857 0.553354,2.582101 0.403116,3.887327 -0.300481,2.610458 -1.617383,5.004453 -3.208401,7.095725 -2.817096,3.702863 -6.561586,6.666551 -10.726097,8.741189 -0.426271,0.212355 -0.859298,0.414195 -1.294205,0.608206 -0.906165,-0.792976 -1.682848,-1.733524 -2.274875,-2.781723 -1.23706,-2.190275 -1.645007,-4.792099 -1.405002,-7.296103 0.240009,-2.503999 1.099319,-4.917324 2.253661,-7.152304 1.338406,-2.591354 3.162768,-5.045926 5.716656,-6.454518 1.276944,-0.704291 2.721351,-1.128802 4.179642,-1.126827 z m 20.426732,13.77655 c 0.121543,0.908442 0.186234,1.835296 0.186234,2.776999 0,11.457133 -9.287843,20.74499 -20.74498,20.74499 -6.434444,0 -12.185054,-2.929193 -15.990135,-7.527128 2.348605,-0.533429 4.644079,-1.299625 6.845841,-2.274874 0.96285,0.733288 2.026199,1.334702 3.156538,1.768036 3.255153,1.247954 6.950839,1.067377 10.245193,-0.07309 3.294351,-1.140454 6.2157,-3.187467 8.762394,-5.56814 3.033775,-2.836039 5.591646,-6.178776 7.538915,-9.846803 z" />
  <path
     inkscape:connector-curvature="0"
     style="color:#000000;display:inline;overflow:visible;visibility:visible;fill:#ffffff;fill-opacity:1;fill-rule:nonzero;stroke:none;stroke-width:0.59554964;marker:none;enable-background:accumulate"
     id="path2993"
     d="m 32.101247,9.1904559 c -12.498695,0 -22.6308872,10.1321961 -22.6308872,22.6308861 0,12.49872 10.1321922,22.630897 22.6308872,22.630897 12.498691,0 22.630886,-10.132177 22.630886,-22.630897 0,-12.49869 -10.132195,-22.6308861 -22.630886,-22.6308861 z m 0,1.8859071 c 9.502514,0 17.512825,6.38934 19.9694,15.106117 -2.115846,4.364163 -5.126546,8.293456 -8.793043,11.468681 -1.761343,1.525322 -3.684372,2.88511 -5.808594,3.842537 -2.124223,0.957428 -4.460709,1.500663 -6.786908,1.367283 -1.747721,-0.100219 -3.474185,-0.587083 -5.004728,-1.435646 4.056218,-2.197932 7.716069,-5.12843 10.711956,-8.637466 1.966437,-2.303262 3.686919,-4.920846 4.34937,-7.87602 0.331226,-1.477584 0.387357,-3.025042 0.0778,-4.507318 -0.309564,-1.482275 -0.994905,-2.89482 -2.032063,-3.998123 -1.013243,-1.077858 -2.343395,-1.841368 -3.769458,-2.2348 -1.426062,-0.393429 -2.943642,-0.423893 -4.398879,-0.157947 -2.910472,0.531891 -5.508994,2.223406 -7.593133,4.323439 -3.673598,3.701612 -5.944654,8.924657 -5.528067,14.123091 0.208293,2.599213 1.079327,5.153295 2.571907,7.291397 0.333165,0.47723 0.699436,0.931826 1.091467,1.362569 -2.174368,0.760962 -4.42575,1.302644 -6.709112,1.607734 -1.960426,-3.167757 -3.09289,-6.901477 -3.09289,-10.900554 0,-11.457135 9.287844,-20.744979 20.74498,-20.744979 z m 0.132014,4.19143 c 1.458288,0.002 2.926487,0.443456 4.090062,1.322491 1.048322,0.791971 1.8251,1.918679 2.265443,3.156536 0.440346,1.237858 0.553354,2.582101 0.403116,3.887327 -0.300481,2.610459 -1.617383,5.004454 -3.208401,7.095726 -2.817096,3.702862 -6.561586,6.66655 -10.726097,8.741189 -0.426271,0.212355 -0.859298,0.414194 -1.294205,0.608206 -0.906165,-0.792977 -1.682848,-1.733525 -2.274875,-2.781724 -1.23706,-2.190274 -1.645007,-4.792099 -1.405002,-7.296103 0.240009,-2.503998 1.099319,-4.917323 2.253661,-7.152303 1.338406,-2.591355 3.162768,-5.045926 5.716656,-6.454518 1.276944,-0.704291 2.721351,-1.128803 4.179642,-1.126827 z m 20.426732,13.77655 c 0.121543,0.908441 0.186234,1.835296 0.186234,2.776999 0,11.457133 -9.287843,20.744988 -20.74498,20.744988 -6.434444,0 -12.185054,-2.929192 -15.990135,-7.527126 2.348605,-0.533429 4.644079,-1.299625 6.845841,-2.274875 0.96285,0.733288 2.026199,1.334702 3.156538,1.768037 3.255153,1.247953 6.950839,1.067377 10.245193,-0.07309 3.294351,-1.140454 6.2157,-3.187467 8.762394,-5.568141 3.033775,-2.836038 5.591646,-6.178775 7.538915,-9.846802 z" />
</svg>
