<?xml version="1.0" encoding="UTF-8" standalone="no"?>
<!-- Generator: Adobe Illustrator 16.0.4, SVG Export Plug-In . SVG Version: 6.00 Build 0)  -->

<svg
   xmlns:dc="http://purl.org/dc/elements/1.1/"
   xmlns:cc="http://creativecommons.org/ns#"
   xmlns:rdf="http://www.w3.org/1999/02/22-rdf-syntax-ns#"
   xmlns:svg="http://www.w3.org/2000/svg"
   xmlns="http://www.w3.org/2000/svg"
   xmlns:sodipodi="http://sodipodi.sourceforge.net/DTD/sodipodi-0.dtd"
   xmlns:inkscape="http://www.inkscape.org/namespaces/inkscape"
   version="1.1"
   id="circle_of_friends__x5F__white_x26_orange"
   x="0px"
   y="0px"
   width="64"
   height="64"
   viewBox="0 0 64.000001 64.000001"
   enable-background="new 0 0 425.197 425.197"
   xml:space="preserve"
   sodipodi:docname="ubuntu.svg"
   inkscape:version="0.92.5 (2060ec1f9f, 2020-04-08)"><metadata
   id="metadata13"><rdf:RDF><cc:Work
       rdf:about=""><dc:format>image/svg+xml</dc:format><dc:type
         rdf:resource="http://purl.org/dc/dcmitype/StillImage" /><dc:title /></cc:Work></rdf:RDF></metadata><defs
   id="defs11" /><sodipodi:namedview
   pagecolor="#ffffff"
   bordercolor="#666666"
   borderopacity="1"
   objecttolerance="10"
   gridtolerance="10"
   guidetolerance="10"
   inkscape:pageopacity="0"
   inkscape:pageshadow="2"
   inkscape:window-width="1544"
   inkscape:window-height="873"
   id="namedview9"
   showgrid="false"
   inkscape:zoom="4"
   inkscape:cx="-4.401505"
   inkscape:cy="52.598495"
   inkscape:window-x="0"
   inkscape:window-y="30"
   inkscape:window-maximized="0"
   inkscape:current-layer="g6" />
<g
   id="g6"
   transform="matrix(0.33709514,0,0,0.33709514,-23.589404,-55.587623)">
	
	<path
   d="m 107.24944,260.0046 c 0,9.47632 -7.682573,17.16077 -17.165482,17.16077 -9.471614,0 -17.154178,-7.6835 -17.154178,-17.16077 0,-9.47256 7.682564,-17.15511 17.154178,-17.15511 9.482909,0 17.165482,7.68255 17.165482,17.15511 z m 97.62006,83.43194 c 4.7391,8.20045 15.22858,11.01302 23.43563,6.28052 8.20609,-4.73911 11.01772,-15.23424 6.27956,-23.44128 -4.73814,-8.2061 -15.22859,-11.01209 -23.43469,-6.27392 -8.20702,4.73909 -11.01867,15.22859 -6.2805,23.43468 z m 29.71426,-149.6984 c 4.73816,-8.20798 1.93218,-18.7003 -6.27958,-23.43375 -8.20138,-4.73816 -18.69558,-1.92652 -23.43563,6.27769 -4.73815,8.20609 -1.92652,18.69747 6.28052,23.43563 8.20703,4.73817 18.70217,1.92652 23.43469,-6.27957 z m -58.07073,17.33779 c 25.56743,0 46.54735,19.5986 48.73847,44.59822 l 24.83203,-0.3917 c -1.17889,-18.57507 -9.23621,-35.28103 -21.65222,-47.59912 -6.57242,2.53574 -14.19848,2.19111 -20.77749,-1.61016 -6.58371,-3.80125 -10.6957,-10.23619 -11.78325,-17.20785 -6.17129,-1.67605 -12.66272,-2.5734 -19.35754,-2.5734 -11.74277,0 -22.84242,2.74572 -32.69915,7.62984 l 12.08269,21.69742 c 6.26168,-2.90956 13.25499,-4.54325 20.61646,-4.54325 z M 127.5787,260.0046 c 0,-16.55061 8.224,-31.18693 20.80667,-40.03709 l -12.74934,-21.3123 c -14.76814,9.86238 -25.76893,24.90641 -30.41011,42.54457 5.49239,4.42273 9.01118,11.20229 9.01118,18.80577 0,7.60817 -3.51972,14.38773 -9.01118,18.81141 4.64118,17.63721 15.64197,32.68125 30.41011,42.54929 l 12.74934,-21.31231 C 135.8027,291.19719 127.5787,276.56652 127.5787,260.0046 Z m 48.93433,48.93809 c -7.36054,0 -14.35384,-1.63274 -20.61646,-4.54796 l -12.08269,21.69743 c 9.85673,4.88788 20.95544,7.63078 32.69915,7.63078 6.69387,0 13.18625,-0.89076 19.35754,-2.56965 1.08661,-6.97635 5.19861,-13.41129 11.78325,-17.20596 6.57901,-3.80126 14.20507,-4.14683 20.77749,-1.61109 12.41695,-12.32374 20.47333,-29.02971 21.65222,-47.60478 l -24.83203,-0.38511 c -2.19205,24.99304 -23.17104,44.59634 -48.73847,44.59634 z"
   id="path4"
   inkscape:connector-curvature="0"
   style="fill:#e95420;stroke-width:0.94160599" />
</g>
</svg>